<svg width="32" height="37" viewBox="0 0 32 37" fill="none" xmlns="http://www.w3.org/2000/svg">
<rect y="4.3378" width="32" height="32" rx="6.4" fill="white"/>
<rect x="0.2" y="4.5378" width="31.6" height="31.6" rx="6.2" stroke="black" stroke-opacity="0.05" stroke-width="0.4"/>
<path d="M9.37743 20.3416C14.3682 10.8419 19.6738 4.01502 23.5092 0.257616C24.199 -0.418104 25.2529 0.3465 24.9696 1.26958C22.8267 8.2514 21.3472 19.3026 20.6859 24.612C20.6152 25.1797 20.0595 25.5515 19.5071 25.4028L10.5493 22.991C9.40058 22.6818 8.82417 21.3947 9.37743 20.3416Z" fill="#7EC9FF"/>
<path d="M17.5025 25.0453C17.4032 18.5684 18.0423 13.2902 18.7276 9.73535C19.0178 8.22976 20.862 7.87825 21.7007 9.16185C24.3385 13.1988 26.1065 17.2618 27.0101 20.9906C27.1945 21.7514 26.8459 22.5326 26.1792 22.9429L20.3104 26.5546C19.0935 27.3035 17.5244 26.4739 17.5025 25.0453Z" fill="#1A93EB"/>
<path d="M3.61286 24.785C2.91003 24.1531 3.53696 23.0043 4.44869 23.2534L27.2439 29.4828C28.1829 29.7394 28.4094 30.9676 27.6237 31.5423C26.5255 32.3455 25.1958 32.7696 23.8354 32.7506L13.5784 32.6073C12.7494 32.5957 11.9528 32.2838 11.3362 31.7295L3.61286 24.785Z" fill="#1B5BBC"/>
</svg>
